<?xml version="1.0" encoding="UTF-8"?>
<svg width="90px" height="64px" viewBox="0 0 90 64" version="1.1" xmlns="http://www.w3.org/2000/svg" xmlns:xlink="http://www.w3.org/1999/xlink">
    <!-- Generator: Sketch 53.2 (72643) - https://sketchapp.com -->
    <title>Shape Copy</title>
    <desc>Created with Sketch.</desc>
    <g id="Design-Pages" stroke="none" stroke-width="1" fill="none" fill-rule="evenodd">
        <g id="101-D-Home" transform="translate(-155.000000, -976.000000)" fill="#1E1E1E" fill-rule="nonzero">
            <g id="Group-6" transform="translate(136.000000, 976.000000)">
                <path d="M22.1579412,42.1445588 L22.1579412,3.85279412 C22.1579412,1.725 23.8827941,-2.84217094e-14 26.0107353,-2.84217094e-14 L64.2827941,-2.84217094e-14 C66.4105882,-2.84217094e-14 68.1354412,1.725 68.1354412,3.85279412 L68.1354412,42.1447059 C68.1354412,42.8539706 67.5605882,43.4289706 66.8511765,43.4289706 L23.4422059,43.4289706 C22.7327941,43.4289706 22.1579412,42.8539706 22.1579412,42.1445588 Z M53.0638235,55.2625 C53.0638235,59.6757353 49.4860294,63.2533824 45.0729412,63.2533824 C40.6598529,63.2533824 37.0820588,59.6757353 37.0820588,55.2625 C37.0820588,50.8491176 40.6598529,47.2716176 45.0729412,47.2716176 C49.4860294,47.2716176 53.0638235,50.8491176 53.0638235,55.2625 Z M49.0682353,55.2625 C49.0682353,53.0558824 47.2794118,51.2670588 45.0727941,51.2670588 C42.8661765,51.2670588 41.0772059,53.0558824 41.0772059,55.2625 C41.0772059,57.4691176 42.8661765,59.2580882 45.0727941,59.2580882 C47.2794118,59.2580882 49.0682353,57.4691176 49.0682353,55.2625 Z M38.1904412,47.2714706 L20.2842647,47.2714706 C19.575,47.2714706 19,47.8464706 19,48.5557353 L19,52.4520588 C19,53.1613235 19.575,53.7363235 20.2842647,53.7363235 L34.6369118,53.7363235 C35.0116176,51.1651471 36.3094118,48.8939706 38.1904412,47.2714706 Z M94.8732353,55.2625 C94.8732353,59.6757353 91.2954412,63.2533824 86.8823529,63.2533824 C82.4691176,63.2533824 78.8914706,59.6757353 78.8914706,55.2625 C78.8914706,50.8491176 82.4691176,47.2716176 86.8823529,47.2716176 C91.2954412,47.2714706 94.8732353,50.8491176 94.8732353,55.2625 Z M90.8779412,55.2625 C90.8779412,53.0558824 89.0889706,51.2670588 86.8823529,51.2670588 C84.6755882,51.2670588 82.8869118,53.0558824 82.8869118,55.2625 C82.8869118,57.4691176 84.6757353,59.2580882 86.8823529,59.2580882 C89.0889706,59.2580882 90.8779412,57.4691176 90.8779412,55.2625 Z M109,48.5557353 L109,52.4520588 C109,53.1613235 108.425,53.7363235 107.715735,53.7363235 L97.3180882,53.7363235 C96.5744118,48.6358824 92.1848529,44.7029412 86.8826471,44.7029412 C81.5794118,44.7029412 77.1897059,48.6360294 76.4460294,53.7363235 L55.5089706,53.7363235 C55.1341176,51.1652941 53.8364706,48.8939706 51.9554412,47.2714706 L71.8075,47.2714706 L71.8075,10.5375 C71.8075,9.11897059 72.9575,7.96897059 74.3760294,7.96897059 L86.5002941,7.96897059 C89.9141176,7.96897059 93.1048529,9.66470588 95.015,12.4939706 L102.831176,24.0705882 C103.977647,25.7686765 104.590294,27.7707353 104.590294,29.8197059 L104.590294,47.2714706 L107.715735,47.2714706 C108.425,47.2714706 109,47.8464706 109,48.5557353 Z M95.9717647,24.3670588 L89.7216176,15.4857353 C89.4810294,15.1439706 89.0892647,14.9405882 88.6713235,14.9405882 L78.9220588,14.9405882 C78.2129412,14.9405882 77.6377941,15.5155882 77.6377941,16.2248529 L77.6377941,25.1061765 C77.6377941,25.8155882 78.2127941,26.3904412 78.9220588,26.3904412 L94.9217647,26.3904412 C95.9620588,26.3904412 96.5705882,25.2179412 95.9717647,24.3670588 Z" id="Shape-Copy"></path>
            </g>
        </g>
    </g>
</svg>